# xmcd
#
# Track frame offsets:
#	150
#	5454
#	19577
#	30332
#	38218
#	46835
#	54791
#	61187
#	72765
#	81441
#	90887
#	104461
#	126064
#	137746
#	153885
#	169497
#	184204
#	198307
#	214705
#	230147
#	245503
#	262721
#	280634
#	293806
#	305133
#	317173
#	329123
#	332816
#	337138
#	349929
#	353088
#
# Disc length: 4732 seconds
#
# Revision: 2
# Processed by: cddbd v1.5.2PL0 Copyright (c) Steve Scherf et al.
# Submitted via: audiograbber 1.83.01
#
DISCID=c4127a1f
DTITLE=Various Artist - 15 Jaar Thunderdome 15 Years - CD1 Past - Gizmo and Dano
DYEAR=2008
DGENRE=Hardcore
TTITLE0=DJ Dano - Thunderdome 15 Years Intro
TTITLE1=Dominium - Let Your Mind
TTITLE2=Kuadra - La Onda
TTITLE3=Rexanthony - For You Marlene
TTITLE4=Dream Youer Dream - Soushkin
TTITLE5=X-Buzz - Overload
TTITLE6=Kick-Side - Time To Blast
TTITLE7=Gangsta Trax - Goodfellas
TTITLE8=G. Shock - Demons
TTITLE9=Bass X - Motherfucker
TTITLE10=Sequential One - Dance (rmx part II)
TTITLE11=Square Dimensione - A Brand New Dance
TTITLE12=Billy The Kid - Can U Do It
TTITLE13=Asylum - Mescalum
TTITLE14=Reyes - Rock With Me
TTITLE15=DJ Gizmo and DJ Norman - Check This Out
TTITLE16=Too Hostile - No Bullshitting
TTITLE17=Predator - 1-2-3-4
TTITLE18=DJ Weirdo and DJ Sim - Go Get Busy
TTITLE19=DJ Delirium and Omar Santana - Drop Da Beat
TTITLE20=Bodylotion - Watch Yourself
TTITLE21=DJ Buzz Fuzz - Frequencies
TTITLE22=Annihilator - I'll Show You My Gun
TTITLE23=Tellurian - Guyver
TTITLE24=3 Steps Ahead - Gangster
TTITLE25=The Prophet - Allright Now Here We Go
TTITLE26=DJ Dano and Liza 'n' Eliaz - Energy Boost
TTITLE27=Nasenbluten - Blows T' The Nose
TTITLE28=System 3 - Keep On Fuckin
TTITLE29=DJ Dano - Welcome To The Thunderdome (20(0)7BPM)
TTITLE30=DJ Dano - Thunderdome 15 Years Outtro
EXTD=hgfsd
EXTT0=
EXTT1=
EXTT2=
EXTT3=
EXTT4=
EXTT5=
EXTT6=
EXTT7=
EXTT8=
EXTT9=
EXTT10=
EXTT11=
EXTT12=
EXTT13=
EXTT14=
EXTT15=
EXTT16=
EXTT17=
EXTT18=
EXTT19=
EXTT20=
EXTT21=
EXTT22=
EXTT23=
EXTT24=
EXTT25=
EXTT26=
EXTT27=
EXTT28=
EXTT29=
EXTT30=
PLAYORDER=
